<?xml version="1.0" standalone="no"?>
<!DOCTYPE svg PUBLIC "-//W3C//DTD SVG 20010904//EN"
 "http://www.w3.org/TR/2001/REC-SVG-20010904/DTD/svg10.dtd">
<svg version="1.0" xmlns="http://www.w3.org/2000/svg"
 width="845.000000pt" height="265.000000pt" viewBox="0 0 845.000000 265.000000"
 preserveAspectRatio="xMidYMid meet">
<metadata>
Created by potrace 1.16, written by Peter Selinger 2001-2019
</metadata>
<g transform="translate(0.000000,265.000000) scale(0.100000,-0.100000)"
fill="#000000" stroke="none">
<path d="M0 1325 l0 -1325 4225 0 4225 0 0 1325 0 1325 -4225 0 -4225 0 0
-1325z m2559 288 c12 -38 68 -195 122 -350 54 -155 99 -284 99 -287 0 -3 -27
-6 -59 -6 l-59 0 -27 80 -27 81 -145 -3 -146 -3 -27 -75 -27 -75 -63 -3 c-57
-3 -62 -1 -56 15 6 14 107 300 241 681 3 8 28 12 77 12 l73 0 24 -67z m3631
-90 c64 -87 120 -158 125 -158 6 0 60 70 121 155 l110 155 57 3 57 3 0 -356 0
-356 -57 3 -58 3 -5 245 -5 245 -109 -148 c-59 -81 -111 -147 -115 -147 -3 0
-51 64 -106 141 -55 77 -106 145 -112 151 -10 8 -13 -41 -13 -241 l0 -251 -55
0 -55 0 0 355 0 355 53 0 52 0 115 -157z m-4915 54 c1 -49 -4 -82 -11 -88 -7
-5 -47 -9 -91 -7 l-78 3 -3 74 c-2 41 -1 80 2 88 4 11 26 13 93 11 l88 -3 0
-78z m443 -4 l-3 -88 -90 0 -90 0 -3 74 c-2 41 -1 80 2 88 4 9 29 13 96 13
l91 0 -3 -87z m4012 -23 l0 -60 60 0 60 0 0 -50 0 -50 -60 0 -60 0 0 -140 c0
-136 1 -142 25 -165 16 -17 35 -25 60 -25 35 0 35 0 35 -44 0 -39 -3 -44 -27
-49 -38 -7 -106 6 -138 27 -51 34 -65 85 -65 249 l0 147 -45 0 -45 0 0 50 c0
45 2 50 22 50 36 0 68 38 68 82 l0 38 55 0 55 0 0 -60z m-2509 -65 c63 -22
113 -66 143 -127 21 -42 26 -66 26 -127 -1 -119 -46 -197 -142 -245 -81 -40
-203 -31 -259 20 -19 17 -19 15 -19 -104 l0 -122 -55 0 -55 0 0 355 0 355 50
0 c49 0 50 0 50 -32 0 -29 1 -30 18 -15 57 52 161 70 243 42z m666 -8 c97 -51
147 -133 147 -247 1 -84 -21 -139 -76 -197 -81 -84 -230 -96 -325 -27 l-23 16
0 -121 0 -121 -55 0 -55 0 0 355 0 355 50 0 c45 0 50 -2 56 -25 l6 -25 34 21
c19 11 47 25 62 30 39 12 143 4 179 -14z m629 -5 c48 -24 110 -91 130 -138 20
-49 18 -163 -5 -216 -37 -87 -122 -146 -223 -155 -72 -7 -130 9 -188 51 -142
103 -140 334 4 433 26 18 62 37 80 43 49 15 156 6 202 -18z m853 -5 c71 -47
81 -85 81 -306 l0 -192 -52 3 -53 3 -5 182 -5 183 -28 27 c-38 38 -113 40
-151 4 -38 -36 -46 -79 -46 -249 l0 -153 -52 3 -53 3 0 255 0 255 53 3 c50 3
52 2 52 -23 l0 -26 29 20 c48 34 73 41 134 37 41 -3 70 -12 96 -29z m1772 6
c68 -35 114 -94 129 -168 22 -106 34 -100 -189 -103 l-193 -2 6 -33 c3 -19 22
-47 46 -69 36 -35 44 -38 100 -38 54 0 64 3 97 34 l38 33 43 -18 c43 -18 43
-19 28 -47 -17 -34 -76 -75 -130 -92 -87 -28 -210 5 -273 72 -70 75 -86 219
-36 316 66 129 209 178 334 115z m-2261 -243 l0 -260 -55 0 -55 0 0 260 0 260
55 0 55 0 0 -260z m-3605 120 l0 -85 -90 0 -90 0 -3 74 c-2 41 -1 80 2 88 4
11 26 13 93 11 l88 -3 0 -85z m220 0 l0 -85 -90 0 -90 0 -3 74 c-2 41 -1 80 2
88 4 11 26 13 93 11 l88 -3 0 -85z m220 0 l0 -85 -87 -3 c-49 -1 -88 1 -88 5
0 4 -2 42 -4 83 -2 41 -2 79 1 83 3 4 44 6 91 5 l87 -3 0 -85z m-437 -210 c5
-112 6 -111 -96 -108 l-87 3 -3 74 c-2 41 -1 80 2 88 4 11 26 13 93 11 l88 -3
3 -65z"/>
<path d="M2456 1532 c-10 -16 -96 -275 -96 -289 0 -10 25 -13 105 -13 58 0
105 2 105 4 0 6 -102 300 -105 304 -2 2 -6 -1 -9 -6z"/>
<path d="M3070 1389 c-63 -26 -100 -85 -100 -160 0 -129 132 -213 230 -146 59
40 75 71 75 147 0 73 -14 103 -67 143 -30 23 -103 31 -138 16z"/>
<path d="M3704 1386 c-17 -8 -44 -31 -60 -52 -25 -33 -29 -46 -29 -105 0 -75
16 -106 75 -146 59 -41 157 -23 200 37 28 39 39 101 28 153 -20 97 -125 152
-214 113z"/>
<path d="M4335 1386 c-37 -16 -83 -68 -91 -102 -11 -43 1 -129 22 -157 48 -65
143 -86 204 -44 59 40 75 71 75 147 0 73 -14 103 -67 143 -33 25 -104 31 -143
13z"/>
<path d="M6975 1396 c-36 -16 -60 -42 -74 -77 -9 -26 -9 -26 42 -33 97 -11
207 -7 213 8 8 20 -22 73 -51 92 -34 22 -94 27 -130 10z"/>
<path d="M1320 1355 l0 -75 75 0 75 0 0 75 0 75 -75 0 -75 0 0 -75z"/>
</g>
</svg>
